<?xml version="1.0" standalone="no"?>
<!DOCTYPE svg PUBLIC "-//W3C//DTD SVG 20010904//EN"
 "http://www.w3.org/TR/2001/REC-SVG-20010904/DTD/svg10.dtd">
<svg version="1.0" xmlns="http://www.w3.org/2000/svg"
 width="1505.000000pt" height="1505.000000pt" viewBox="0 0 1505.000000 1505.000000"
 preserveAspectRatio="xMidYMid meet">
<metadata>
Created by potrace 1.11, written by Peter Selinger 2001-2013
</metadata>
<g transform="translate(0.000000,1505.000000) scale(0.100000,-0.100000)"
fill="#000000" stroke="none">
<path d="M7169 15045 c-2 -2 -58 -6 -124 -9 -66 -3 -138 -8 -160 -10 -22 -3
-71 -8 -110 -11 -38 -4 -86 -8 -105 -11 -71 -8 -136 -16 -160 -19 -14 -2 -45
-7 -70 -10 -25 -3 -70 -10 -100 -15 -30 -5 -73 -12 -95 -16 -22 -3 -71 -12
-110 -19 -38 -8 -86 -17 -105 -20 -19 -3 -63 -12 -96 -20 -34 -8 -73 -16 -85
-19 -36 -6 -304 -74 -384 -97 -38 -12 -90 -26 -115 -34 -137 -39 -550 -183
-635 -220 -16 -8 -91 -39 -165 -70 -391 -164 -854 -417 -1246 -681 -204 -138
-554 -404 -689 -525 -11 -10 -34 -31 -51 -46 -150 -133 -210 -190 -359 -338
-93 -94 -194 -197 -224 -230 -29 -33 -70 -78 -90 -100 -76 -83 -241 -285 -344
-420 -59 -77 -111 -145 -117 -152 -22 -27 -261 -383 -313 -468 -195 -318 -381
-679 -513 -993 -25 -59 -49 -116 -54 -127 -113 -247 -335 -970 -386 -1260 -3
-16 -15 -73 -26 -125 -10 -52 -21 -111 -24 -130 -2 -19 -9 -57 -14 -85 -5 -27
-12 -70 -16 -95 -3 -25 -7 -54 -9 -65 -1 -11 -6 -43 -9 -70 -4 -28 -8 -61 -11
-75 -2 -14 -7 -52 -10 -85 -3 -33 -8 -76 -10 -95 -5 -41 -11 -123 -22 -270
-10 -135 -10 -844 0 -975 8 -105 15 -184 22 -250 2 -22 7 -67 10 -100 3 -33 8
-73 10 -90 8 -68 26 -193 29 -211 2 -10 7 -41 10 -68 4 -27 9 -52 10 -55 2 -3
7 -28 11 -56 16 -124 109 -546 146 -660 5 -16 22 -77 39 -135 100 -358 283
-830 458 -1185 35 -71 68 -139 73 -150 15 -33 162 -297 214 -383 6 -9 23 -39
39 -67 39 -66 247 -383 303 -460 23 -33 51 -71 60 -84 102 -141 321 -410 481
-591 131 -148 486 -496 641 -630 35 -30 69 -60 75 -65 6 -6 47 -40 91 -75 44
-36 82 -67 85 -71 3 -3 23 -18 45 -34 22 -17 42 -32 45 -36 12 -13 178 -135
315 -230 615 -430 1293 -764 2010 -992 77 -25 149 -47 160 -50 11 -3 67 -19
125 -35 85 -24 260 -69 340 -87 52 -12 372 -75 405 -79 22 -4 65 -11 95 -16
30 -5 79 -12 109 -15 30 -4 61 -8 70 -10 9 -1 43 -6 76 -10 33 -3 74 -8 90
-10 79 -10 205 -20 375 -32 233 -15 887 -8 1065 12 22 2 67 7 100 10 33 3 74
7 90 9 17 2 62 7 100 11 75 8 76 8 145 19 25 4 59 9 75 11 106 14 164 25 540
101 11 2 99 24 195 49 96 25 184 47 194 50 158 37 705 233 921 330 57 26 92
40 107 45 16 4 449 222 528 265 376 206 813 502 1155 782 288 236 665 598 865
833 12 14 45 52 74 85 96 109 243 293 353 441 181 244 379 554 530 829 129
235 303 592 303 621 0 8 5 14 10 14 6 0 10 6 10 14 0 7 20 59 44 115 25 56 45
102 45 104 0 1 4 13 9 27 127 339 268 788 295 940 3 14 12 52 20 85 23 90 63
292 91 455 25 150 29 173 46 318 6 48 12 103 15 122 2 19 7 67 10 105 4 39 8
90 10 115 25 286 25 1045 0 1201 -2 13 -6 64 -10 113 -4 50 -8 97 -10 105 -1
9 -6 48 -10 86 -4 39 -9 78 -11 89 -2 10 -6 44 -9 75 -4 31 -8 63 -10 71 -4
14 -8 36 -20 113 -84 520 -266 1150 -475 1647 -92 218 -274 594 -360 745 -13
22 -34 60 -48 85 -14 25 -68 115 -120 200 -454 744 -1049 1416 -1737 1964 -60
48 -117 93 -126 101 -37 29 -300 216 -399 282 -250 166 -533 328 -835 477
-459 227 -938 403 -1440 531 -152 39 -400 94 -495 110 -19 4 -71 12 -115 20
-44 8 -100 17 -125 20 -25 3 -52 8 -60 10 -8 2 -40 7 -70 10 -30 3 -71 7 -90
10 -35 5 -95 11 -172 20 -24 2 -77 7 -118 11 -41 3 -95 8 -120 10 -61 6 -867
14 -871 9z m841 -69 c19 -2 76 -7 125 -11 130 -10 155 -13 208 -19 26 -3 68
-8 95 -12 57 -6 108 -13 142 -19 14 -2 45 -7 70 -10 145 -19 493 -88 685 -136
898 -225 1765 -626 2515 -1163 112 -80 277 -203 290 -216 3 -3 39 -32 80 -65
365 -291 784 -710 1101 -1100 524 -645 964 -1426 1229 -2180 23 -66 46 -129
51 -140 21 -47 133 -438 173 -607 44 -182 88 -392 101 -478 4 -24 8 -47 10
-50 2 -4 6 -28 10 -56 3 -27 7 -60 9 -74 2 -14 7 -47 11 -73 4 -27 8 -56 10
-65 1 -10 6 -48 10 -85 3 -37 8 -76 10 -85 1 -9 6 -55 10 -102 4 -47 8 -98 10
-115 25 -211 25 -928 0 -1185 -1 -19 -6 -71 -10 -114 -4 -43 -8 -86 -10 -95
-1 -9 -6 -47 -10 -84 -3 -37 -8 -76 -10 -86 -2 -10 -6 -42 -10 -72 -3 -30 -10
-76 -15 -104 -5 -27 -12 -68 -15 -90 -3 -22 -10 -62 -15 -90 -6 -27 -20 -97
-31 -155 -73 -373 -246 -960 -368 -1245 -5 -11 -44 -103 -87 -205 -242 -573
-559 -1109 -978 -1655 -37 -47 -168 -208 -176 -215 -3 -3 -18 -21 -34 -40
-220 -269 -640 -680 -971 -949 -251 -203 -646 -481 -845 -594 -14 -8 -77 -45
-140 -82 -139 -82 -531 -282 -690 -352 -566 -249 -1065 -400 -1777 -537 -10
-2 -46 -8 -78 -12 -33 -4 -62 -8 -65 -9 -3 -1 -30 -5 -60 -9 -30 -4 -66 -9
-80 -11 -14 -2 -56 -7 -95 -10 -38 -4 -77 -8 -86 -10 -9 -2 -52 -6 -95 -10
-43 -4 -92 -8 -109 -10 -218 -24 -1033 -25 -1162 -1 -10 2 -58 7 -108 10 -49
4 -101 9 -115 11 -14 2 -52 6 -85 10 -33 3 -71 8 -85 10 -14 2 -88 13 -165 25
-111 16 -320 55 -507 95 -9 2 -76 18 -150 36 -73 18 -133 31 -133 29 0 -2 -9
2 -21 8 -11 6 -32 13 -45 16 -116 22 -677 214 -834 286 -11 5 -65 28 -120 51
-415 172 -995 499 -1385 780 -91 66 -231 170 -246 184 -6 6 -29 24 -50 40
-551 427 -1113 1029 -1536 1645 -85 124 -258 396 -258 406 0 3 -16 30 -35 60
-19 30 -35 57 -35 59 0 3 -11 23 -25 45 -92 146 -316 619 -428 906 -68 173
-177 482 -182 514 0 3 -10 37 -22 75 -20 65 -80 281 -88 315 -2 8 -13 56 -24
105 -28 120 -59 262 -66 305 -3 19 -10 58 -15 85 -5 28 -12 66 -15 85 -3 19
-10 60 -15 90 -5 30 -12 78 -15 105 -4 28 -8 61 -10 75 -2 14 -7 52 -10 85 -4
33 -8 67 -10 75 -2 8 -7 56 -11 105 -3 50 -8 101 -10 115 -25 200 -25 950 1
1200 2 19 6 73 10 119 4 47 8 93 10 102 2 10 6 44 10 76 6 62 13 110 20 158 3
17 7 48 11 70 3 22 14 92 25 155 11 63 22 125 24 138 19 115 102 459 156 647
63 216 190 590 244 710 7 17 36 86 65 155 196 470 500 1005 831 1459 92 126
283 370 354 451 17 18 66 75 109 124 75 86 459 474 556 562 396 359 853 690
1335 964 230 131 630 330 663 330 7 0 12 5 12 10 0 6 6 10 14 10 8 0 45 14 83
31 156 70 550 213 743 269 41 12 86 25 100 30 133 47 768 186 940 205 14 2 39
5 55 8 17 3 53 8 80 11 28 4 66 8 85 11 19 2 51 7 70 9 60 8 223 22 380 32 52
3 97 7 98 9 5 5 802 -3 842 -9z"/>
<path d="M7327 14874 c-1 -1 -74 -5 -162 -9 -171 -7 -202 -9 -310 -20 -66 -6
-99 -9 -185 -20 -19 -2 -57 -7 -85 -10 -27 -3 -59 -7 -71 -9 -12 -2 -45 -7
-74 -11 -29 -4 -62 -9 -74 -11 -11 -2 -38 -6 -61 -9 -101 -15 -459 -91 -630
-135 -120 -31 -473 -136 -525 -157 -8 -3 -19 -7 -25 -9 -35 -9 -374 -140 -440
-169 -16 -7 -50 -22 -75 -33 -139 -60 -196 -87 -405 -192 -536 -271 -1022
-597 -1500 -1007 -234 -202 -543 -512 -766 -773 -312 -364 -601 -778 -834
-1195 -74 -133 -209 -397 -253 -495 -174 -389 -283 -683 -387 -1041 -30 -103
-56 -197 -59 -210 -2 -13 -18 -80 -34 -149 -30 -124 -80 -366 -88 -427 -2 -18
-13 -85 -24 -149 -10 -64 -19 -119 -18 -123 1 -3 -2 -28 -6 -56 -16 -113 -31
-262 -40 -410 -14 -208 -18 -316 -18 -515 0 -199 7 -419 17 -515 2 -22 7 -80
10 -130 4 -49 8 -101 10 -115 2 -14 6 -54 10 -90 3 -36 8 -76 10 -90 2 -14 7
-45 10 -70 3 -25 10 -70 15 -100 5 -30 12 -75 15 -100 20 -154 149 -720 199
-871 8 -24 24 -78 36 -119 73 -246 238 -669 367 -939 30 -64 62 -129 69 -146
8 -16 32 -61 52 -100 258 -481 386 -677 776 -1194 11 -14 34 -42 50 -61 17
-20 49 -58 71 -85 182 -224 547 -596 795 -811 615 -532 1260 -934 1995 -1246
77 -32 148 -61 157 -63 9 -2 25 -8 35 -13 17 -9 296 -111 318 -117 6 -1 17 -5
25 -8 42 -17 365 -110 505 -146 138 -35 436 -98 545 -116 19 -3 60 -10 90 -15
30 -5 75 -12 100 -15 25 -4 59 -8 75 -10 71 -10 195 -24 260 -31 39 -3 84 -8
100 -9 267 -27 1024 -27 1251 -1 16 2 61 7 99 11 231 22 479 58 715 105 238
48 381 82 585 141 255 74 634 206 800 279 22 10 73 32 114 50 126 55 221 99
376 177 154 77 487 264 516 289 8 8 19 14 23 14 11 0 338 218 441 294 50 36
101 74 115 83 56 41 282 223 375 302 148 127 212 188 406 381 152 151 233 237
397 423 149 169 427 541 577 772 175 270 274 445 430 760 178 360 304 671 419
1036 49 158 141 492 153 558 2 14 10 51 18 81 7 30 16 71 19 90 3 19 8 46 11
60 25 127 52 283 60 355 4 28 8 57 10 65 3 8 7 42 10 75 4 33 8 67 10 75 2 8
7 51 10 95 3 44 8 94 10 110 2 17 6 73 10 125 4 52 8 120 10 150 6 80 6 588 0
700 -9 172 -22 349 -30 410 -2 19 -7 60 -10 90 -10 99 -35 281 -55 393 -5 31
-14 81 -19 110 -14 77 -51 256 -63 302 -6 22 -12 51 -15 64 -20 113 -146 536
-223 752 -54 152 -157 412 -199 504 -15 33 -41 89 -57 125 -78 175 -289 571
-380 713 -24 37 -44 70 -44 73 0 3 -9 17 -19 32 -10 15 -65 97 -122 182 -91
138 -256 366 -343 473 -289 358 -502 585 -857 913 -25 23 -114 99 -199 170
-889 743 -1921 1257 -3049 1520 -86 20 -167 38 -181 40 -14 3 -59 11 -100 19
-113 22 -124 24 -270 45 -189 28 -189 28 -250 35 -30 3 -71 7 -90 10 -19 2
-71 7 -115 10 -44 4 -96 8 -115 10 -114 12 -723 27 -733 19z m453 -1518 c85
-4 171 -8 190 -10 19 -2 73 -7 120 -11 125 -11 128 -12 210 -24 41 -6 95 -13
120 -16 25 -3 52 -7 60 -10 8 -2 31 -6 50 -9 107 -13 442 -90 640 -148 418
-120 909 -330 1270 -543 63 -37 124 -73 135 -79 165 -94 613 -418 721 -521 6
-5 39 -35 74 -65 696 -601 1286 -1450 1610 -2315 76 -204 160 -465 185 -575 1
-8 8 -35 15 -60 7 -25 14 -53 16 -62 2 -10 6 -26 8 -35 4 -15 28 -122 42 -188
8 -40 63 -371 68 -415 3 -25 8 -72 11 -105 4 -33 8 -74 10 -91 26 -223 27
-853 1 -1079 -2 -16 -7 -63 -11 -103 -3 -41 -8 -81 -9 -90 -2 -9 -7 -43 -11
-76 -3 -32 -8 -68 -10 -80 -2 -11 -6 -39 -9 -61 -4 -22 -13 -74 -21 -115 -8
-41 -16 -86 -19 -100 -2 -14 -21 -97 -41 -185 -153 -659 -431 -1302 -810
-1875 -87 -131 -284 -403 -304 -420 -3 -3 -24 -27 -45 -55 -179 -227 -517
-569 -766 -777 -258 -215 -605 -457 -860 -600 -25 -14 -62 -35 -83 -47 -131
-74 -410 -207 -582 -278 -140 -58 -404 -155 -455 -168 -8 -2 -53 -15 -100 -30
-78 -23 -251 -70 -296 -80 -11 -2 -57 -12 -104 -23 -47 -12 -125 -28 -175 -37
-49 -10 -99 -19 -110 -21 -11 -2 -36 -6 -55 -9 -19 -3 -48 -7 -65 -9 -16 -3
-50 -8 -75 -11 -25 -3 -54 -8 -66 -10 -12 -3 -56 -7 -98 -10 -42 -4 -87 -8
-99 -11 -133 -25 -923 -25 -1077 0 -14 2 -57 7 -95 10 -39 4 -81 8 -95 11 -14
2 -45 6 -70 9 -119 15 -408 70 -560 107 -265 64 -653 188 -825 264 -16 7 -57
24 -90 38 -234 98 -597 285 -785 405 -209 133 -265 172 -440 301 -88 65 -77
56 -210 166 -277 228 -552 502 -787 785 -470 565 -851 1266 -1067 1962 -89
286 -169 635 -201 868 -8 64 -16 117 -20 140 -2 14 -7 54 -10 90 -4 36 -8 76
-10 90 -2 14 -7 72 -10 130 -3 58 -8 125 -10 150 -11 116 -5 529 11 730 3 47
8 103 9 125 3 39 13 126 20 175 2 14 9 61 15 105 18 128 37 232 76 425 19 92
101 391 144 525 284 877 769 1671 1420 2324 163 163 322 306 524 468 167 134
522 374 696 470 30 17 97 54 149 83 290 160 702 331 1071 444 110 34 338 93
390 102 14 3 33 7 42 10 9 3 27 7 40 9 13 3 46 9 73 15 28 5 64 12 80 15 17 2
55 9 85 15 87 15 116 19 243 35 23 3 58 8 77 10 19 3 64 7 100 10 36 3 90 8
120 10 30 3 134 8 230 11 96 4 176 7 177 8 2 2 129 -2 293 -8z m-3890 -51 c0
-8 3 -20 6 -29 4 -11 -15 -25 -73 -54 -114 -58 -143 -99 -120 -169 18 -55 64
-82 130 -77 28 3 66 8 82 13 58 15 162 13 197 -4 115 -58 159 -191 97 -292
-29 -46 -106 -106 -188 -146 -36 -17 -71 -32 -78 -33 -16 -3 -30 15 -38 47 -6
24 -2 27 67 54 87 33 131 64 152 106 32 63 11 135 -46 165 -32 17 -27 17 -255
-2 -64 -6 -76 -4 -120 20 -109 60 -135 192 -56 287 29 34 127 103 175 123 35
15 68 10 68 -9z m8012 -391 c73 -59 142 -112 152 -120 17 -11 18 -17 8 -39 -7
-14 -19 -28 -28 -32 -16 -6 -26 1 -171 114 l-80 62 -51 -67 c-28 -37 -60 -77
-71 -89 -12 -12 -21 -26 -21 -32 0 -5 47 -48 106 -96 100 -83 104 -88 91 -109
-24 -36 -53 -32 -110 16 -29 24 -73 60 -99 81 l-47 37 -102 -127 c-56 -71
-104 -130 -106 -132 -4 -6 -83 50 -83 60 0 4 4 9 8 11 4 2 97 116 206 253 110
138 211 265 225 282 14 18 29 33 33 33 4 0 67 -48 140 -106z m-8662 -144 c3
-3 36 -41 75 -85 38 -44 72 -82 75 -85 39 -35 270 -305 270 -315 0 -7 -12 -23
-27 -35 -33 -26 -83 -23 -183 10 -36 12 -103 33 -150 47 -190 56 -286 84 -300
88 -8 2 -30 8 -48 14 l-32 10 20 -29 c12 -17 29 -35 38 -42 10 -7 27 -26 39
-41 12 -16 60 -70 105 -120 46 -50 107 -117 136 -149 28 -32 52 -61 52 -65 0
-5 -14 -21 -31 -38 l-31 -29 -31 34 c-16 19 -60 68 -96 109 -36 40 -70 79 -76
85 -5 6 -46 52 -91 101 -44 50 -95 107 -114 128 -18 20 -46 51 -61 68 -22 25
-26 36 -18 50 13 26 50 49 80 50 13 1 158 -37 322 -85 164 -48 303 -86 307
-84 5 2 -19 33 -53 70 -34 37 -85 93 -113 125 -29 32 -86 96 -128 143 -42 47
-76 87 -76 90 1 3 17 17 36 32 l36 27 31 -37 c18 -20 34 -39 37 -42z m9542
-681 l30 -37 -38 -68 c-21 -38 -49 -89 -64 -114 -14 -25 -29 -52 -33 -60 -4
-8 -17 -31 -28 -50 -12 -19 -32 -55 -46 -80 -13 -25 -34 -61 -45 -80 -11 -19
-46 -81 -78 -137 l-57 -102 -36 37 -37 38 55 97 c30 54 55 106 55 117 0 19
-24 50 -119 153 -50 54 -44 54 -161 0 -91 -43 -117 -44 -147 -9 -30 35 -29 42
5 54 15 6 171 71 347 146 177 76 331 135 344 134 13 -2 37 -19 53 -39z
m-10204 -93 c154 -56 285 -217 297 -363 14 -181 -127 -347 -305 -358 -140 -9
-288 69 -374 199 -102 154 -94 315 23 439 88 94 236 128 359 83z m10695 -1066
c-109 -127 -199 -235 -201 -239 -1 -4 26 -2 60 5 35 7 79 16 98 19 19 3 42 7
50 10 8 2 26 6 40 9 39 7 147 26 177 31 16 3 44 8 63 11 19 3 54 9 77 14 28 5
46 4 52 -4 13 -17 53 -98 49 -101 -32 -26 -619 -417 -621 -414 -2 2 -13 21
-25 41 l-21 37 27 20 c15 10 124 83 242 161 118 78 222 149 230 157 8 9 10 13
4 10 -7 -4 -29 -9 -50 -13 -22 -3 -70 -12 -109 -19 -38 -8 -88 -17 -110 -20
-22 -4 -48 -8 -57 -11 -32 -9 -243 -44 -269 -44 -14 0 -33 6 -43 13 -16 12
-17 18 -7 48 6 19 24 48 39 64 15 17 83 98 151 180 68 83 131 159 140 170 34
41 35 47 4 33 -40 -19 -260 -131 -380 -195 l-102 -54 -27 41 c-15 22 -25 42
-23 43 2 2 154 78 338 170 l334 166 34 -54 34 -54 -198 -231z m-11273 172
c331 -212 380 -244 380 -249 0 -2 -9 -22 -20 -44 -18 -34 -23 -38 -40 -29 -18
10 -392 248 -542 346 -38 25 -68 49 -68 54 0 21 43 80 53 73 7 -4 113 -72 237
-151z m-434 -286 c3 -7 -16 -54 -41 -104 -25 -51 -45 -95 -44 -100 0 -4 131
-72 290 -152 160 -80 292 -147 294 -150 2 -3 -5 -25 -15 -48 l-19 -43 -103 52
c-57 28 -191 95 -299 149 l-196 99 -20 -37 c-12 -20 -35 -64 -53 -97 -18 -33
-33 -61 -35 -63 -2 -2 -19 5 -39 15 l-36 18 41 80 c22 44 79 155 125 247 l84
167 31 -11 c17 -6 33 -16 35 -22z m12506 -870 l16 -44 -191 -72 c-106 -40
-205 -79 -222 -86 -16 -7 -78 -31 -137 -53 -58 -21 -115 -44 -127 -50 -19 -11
-23 -7 -43 33 -12 25 -20 48 -17 50 2 2 112 45 244 95 132 50 249 95 260 100
38 18 180 70 190 70 6 1 18 -19 27 -43z m-12512 -109 l265 -3 3 -27 c2 -18 -5
-35 -21 -51 -24 -24 -29 -25 -121 -19 l-96 6 -33 -36 c-19 -19 -34 -41 -34
-48 0 -8 -12 -50 -27 -94 -22 -65 -25 -81 -14 -90 7 -5 48 -36 91 -68 42 -32
78 -63 78 -70 2 -24 -3 -52 -15 -74 -11 -21 -16 -18 -151 88 -77 61 -156 123
-175 139 -231 185 -276 224 -284 240 -10 22 -2 57 19 85 17 21 97 32 200 28
28 -1 169 -4 315 -6z m12758 -634 c-1 -5 2 -25 7 -46 4 -21 6 -40 3 -42 -2 -2
-139 -36 -303 -75 -353 -82 -346 -80 -341 -89 5 -7 66 -279 66 -291 0 -5 -9
-11 -20 -14 -11 -3 -29 -8 -39 -11 -17 -5 -21 2 -32 52 -7 32 -14 63 -15 68
-1 6 -12 53 -24 105 -30 126 -39 174 -35 178 2 2 43 13 92 24 48 11 95 21 103
23 213 49 297 68 350 81 36 9 74 18 85 20 11 2 34 8 50 13 38 12 55 13 53 4z
m-13259 -147 c35 -19 77 -67 95 -111 l14 -33 60 30 c52 26 73 30 168 34 60 3
117 7 126 8 30 6 29 -77 -1 -93 -9 -5 -64 -12 -123 -15 -112 -6 -161 -20 -189
-52 -22 -26 -39 -80 -39 -123 l0 -36 151 -30 151 -29 -6 -44 c-3 -25 -8 -47
-10 -50 -3 -3 -52 5 -108 16 -57 12 -116 24 -133 27 -16 3 -133 27 -260 53
-176 36 -230 51 -230 62 -1 8 3 35 8 60 4 25 10 58 12 75 27 189 102 277 229
269 31 -2 69 -10 85 -18z m13435 -812 c11 -28 6 -69 -9 -91 -9 -12 -50 -42
-93 -66 -114 -65 -221 -131 -222 -138 0 -3 72 -36 160 -73 88 -37 169 -75 180
-84 13 -11 21 -33 25 -65 2 -27 1 -47 -3 -45 -66 29 -180 84 -271 131 -98 50
-222 93 -233 81 -3 -2 -63 -6 -134 -10 l-130 -7 -3 55 -2 55 51 -7 c51 -7 62
-6 154 5 97 11 217 70 396 194 63 44 118 80 121 80 4 1 10 -6 13 -15z m-13739
-58 c44 -4 91 -9 105 -11 14 -2 57 -6 95 -10 39 -3 88 -8 110 -10 59 -7 121
-13 205 -21 41 -4 82 -8 90 -10 8 -1 22 -3 31 -3 12 -1 16 -11 14 -48 -1 -40
-4 -48 -21 -47 -27 0 -194 15 -224 19 -14 2 -56 6 -95 10 -38 3 -89 8 -112 10
-24 3 -62 7 -85 9 -24 3 -79 8 -123 12 -92 7 -94 8 -90 32 2 9 4 32 4 50 1 18
4 31 9 29 4 -3 43 -8 87 -11z m199 -531 c51 -24 92 -83 107 -153 7 -31 13 -59
14 -62 1 -3 5 -29 10 -58 4 -30 14 -56 22 -59 7 -3 70 -6 140 -7 l127 -1 1
-47 2 -48 -66 -1 c-74 0 -671 0 -685 1 -8 0 -1 252 9 304 13 63 53 113 115
141 46 20 152 15 204 -10z m372 -846 c78 -37 110 -111 121 -280 5 -79 3 -89
-16 -108 -24 -24 -46 -27 -57 -9 -5 7 -9 61 -9 119 -1 90 -5 111 -23 141 -50
81 -166 80 -215 -2 -8 -14 -25 -61 -36 -105 -41 -152 -108 -219 -218 -217
-132 2 -203 105 -203 295 l0 90 31 -7 c17 -3 37 -6 43 -6 8 0 11 -31 11 -97 0
-85 3 -102 22 -129 39 -54 118 -61 168 -14 14 13 38 67 61 138 33 98 45 124
80 158 63 64 152 76 240 33z m192 -713 c22 -50 9 -74 -69 -126 -105 -72 -116
-98 -85 -206 8 -27 19 -67 25 -90 l11 -41 57 -2 c32 -1 82 -3 111 -4 60 -3 91
-26 95 -73 2 -28 0 -29 -38 -28 -41 1 -231 12 -340 20 -33 2 -114 7 -180 10
-66 3 -133 7 -150 9 -16 2 -34 4 -40 4 -34 4 -71 81 -54 113 10 19 620 438
638 438 4 0 13 -11 19 -24z m9738 -3913 c71 -109 163 -250 205 -313 l77 -115
-157 -104 c-86 -57 -163 -106 -172 -108 -10 -3 -25 7 -37 25 l-22 29 129 87
129 86 -62 95 c-33 52 -65 95 -69 95 -4 0 -60 -34 -123 -75 -121 -79 -125 -80
-152 -30 -9 18 1 28 109 99 65 44 119 81 119 83 0 2 -32 52 -71 112 l-72 109
-58 -36 c-32 -21 -93 -59 -136 -86 l-77 -48 -23 28 c-13 16 -23 31 -23 34 0 6
342 230 351 230 4 0 65 -89 135 -197z m-7113 121 c43 -26 80 -50 152 -96 22
-14 66 -42 98 -62 l58 -36 -23 -33 c-13 -17 -27 -40 -33 -49 -13 -23 -221
-355 -295 -470 l-55 -87 -70 44 c-39 25 -75 49 -82 55 -7 5 -14 10 -17 10 -6
0 -146 88 -160 101 -11 10 15 69 31 69 6 0 66 -34 133 -75 67 -41 123 -75 125
-75 5 0 127 191 123 194 -19 16 -224 146 -230 146 -17 0 -10 17 28 78 1 2 57
-31 124 -73 68 -42 126 -72 131 -68 4 4 37 55 73 112 l66 105 -43 25 c-97 59
-227 147 -227 154 0 12 34 56 43 57 4 0 26 -12 50 -26z m6382 -376 c-5 -75 -9
-119 -22 -223 -13 -111 1 -156 61 -190 67 -39 276 -180 276 -187 0 -13 -58
-38 -87 -38 -25 0 -68 21 -83 40 -12 16 -200 141 -201 133 0 -4 -2 -16 -4 -27
-2 -10 -6 -69 -10 -130 -3 -61 -8 -123 -11 -137 -6 -33 -40 -65 -77 -74 -28
-7 -28 -7 -23 36 8 69 18 160 21 204 2 22 7 66 10 97 9 72 1 84 -101 150 -44
28 -118 76 -166 107 -48 31 -88 59 -88 64 0 16 63 45 89 41 14 -3 86 -46 160
-95 73 -50 134 -89 136 -87 3 3 15 154 19 261 4 71 19 100 61 118 42 17 44 12
40 -63z m-5605 -57 c211 -105 278 -293 180 -506 -97 -212 -327 -294 -531 -189
-52 26 -129 84 -129 97 0 7 9 23 19 37 l19 24 46 -32 c147 -105 272 -113 386
-22 114 91 163 272 105 393 -31 65 -123 126 -240 157 -58 16 -64 22 -57 57 5
25 6 26 73 20 47 -4 86 -15 129 -36z m4901 -602 l116 -354 -51 -18 c-195 -70
-293 -85 -354 -53 -64 33 -122 137 -122 217 0 42 38 120 73 152 27 24 155 95
198 109 10 3 5 32 -25 134 -21 71 -39 133 -40 138 -1 9 63 36 79 32 5 -1 62
-162 126 -357z m-4181 306 c16 -8 34 -23 39 -33 5 -9 32 -105 61 -212 28 -107
56 -206 61 -220 5 -14 20 -67 33 -119 14 -51 27 -95 29 -97 3 -3 89 282 92
306 1 3 9 32 19 65 9 33 26 91 37 128 20 67 21 69 47 62 15 -4 34 -8 42 -10 9
-1 14 -11 12 -26 -1 -13 -46 -175 -100 -359 -105 -362 -102 -355 -163 -329
-31 12 -61 59 -73 114 -17 74 -150 541 -156 548 -6 7 -18 -31 -65 -203 -2 -8
-11 -40 -20 -70 -9 -30 -23 -80 -31 -110 -33 -121 -46 -160 -52 -160 -19 0
-82 22 -82 28 0 4 46 166 102 360 111 383 105 370 168 337z m3291 -177 c0 -7
2 -20 4 -28 1 -8 8 -42 14 -75 6 -33 13 -71 16 -85 5 -24 52 -270 61 -320 11
-59 35 -186 38 -202 3 -13 -12 -19 -83 -32 -108 -20 -130 -24 -161 -31 -31 -7
-53 -11 -107 -20 -45 -7 -45 -7 -57 46 l-6 26 143 28 c78 15 146 31 150 35 5
4 4 33 -2 64 -6 31 -16 80 -21 109 l-11 54 -144 -27 -145 -27 -2 24 c-1 12 -2
31 -2 40 -1 17 27 28 99 38 22 3 48 8 57 11 9 3 27 7 40 9 90 17 85 9 63 117
-9 40 -18 89 -21 108 -3 19 -8 38 -10 42 -5 7 -49 4 -100 -7 -12 -3 -39 -7
-60 -10 -21 -3 -45 -8 -52 -11 -33 -11 -112 -15 -112 -6 0 5 -3 23 -6 39 l-6
30 94 18 c51 9 107 19 123 22 17 3 57 11 90 18 79 17 115 18 116 3z m-2376
-47 c107 -16 136 -20 190 -27 28 -4 57 -8 65 -10 8 -1 23 -3 33 -3 17 -1 18
-7 13 -55 -4 -29 -8 -62 -10 -72 -5 -27 -15 -92 -21 -144 -3 -25 -8 -52 -10
-60 -2 -8 -7 -39 -10 -69 -4 -30 -8 -62 -10 -71 -2 -9 -6 -41 -10 -70 -4 -29
-8 -61 -10 -70 -2 -9 -6 -41 -10 -71 -4 -30 -9 -58 -12 -62 -3 -4 -21 -5 -41
-2 -21 3 -68 10 -107 16 -38 5 -81 11 -95 14 -14 2 -45 6 -70 9 -90 12 -85 9
-82 52 2 21 5 40 6 41 1 1 29 -2 62 -7 32 -5 77 -11 99 -14 22 -2 63 -8 91
-11 l52 -7 7 53 c4 30 9 61 10 69 16 86 15 110 -2 111 -10 0 -26 2 -36 4 -10
2 -49 8 -85 14 -37 6 -78 13 -92 15 -14 3 -31 5 -37 5 -8 1 -13 16 -13 41 l0
40 48 -6 c26 -3 91 -11 144 -18 111 -14 102 -19 114 69 3 28 8 57 9 66 2 9 6
39 10 67 6 49 5 52 -17 53 -13 0 -30 2 -38 4 -32 6 -89 15 -171 26 -70 10 -86
15 -84 28 2 9 4 28 4 44 1 23 5 27 24 23 12 -3 54 -10 92 -15z m1616 -120 c1
-25 2 -59 4 -76 1 -16 6 -77 9 -135 3 -58 9 -150 12 -205 11 -197 11 -230 -2
-256 -17 -33 -23 -35 -171 -38 -112 -3 -127 -1 -177 22 -41 19 -60 35 -79 68
-53 93 -42 175 34 250 l47 47 -35 34 c-20 18 -43 51 -52 73 -27 63 -75 234
-68 242 13 13 71 4 88 -14 9 -10 29 -58 44 -107 28 -95 58 -149 91 -166 24
-14 86 -18 134 -10 31 5 34 8 33 35 0 17 -4 87 -8 157 l-7 127 34 3 c60 6 68
0 69 -51z m-845 33 c20 -5 22 -12 19 -62 -2 -32 -6 -118 -9 -192 -3 -74 -9
-202 -12 -285 -4 -82 -7 -162 -7 -177 -1 -27 -3 -28 -53 -28 l-53 0 4 42 c2
24 6 99 9 168 3 69 8 188 12 265 4 77 8 169 9 205 2 36 4 66 4 68 2 4 56 2 77
-4z"/>
<path d="M7298 13245 c-2 -2 -59 -6 -128 -10 -175 -8 -202 -11 -350 -30 -98
-13 -296 -43 -334 -51 -11 -2 -37 -7 -56 -10 -19 -3 -37 -7 -40 -9 -3 -2 -25
-6 -49 -10 -85 -13 -433 -105 -603 -161 -153 -50 -486 -176 -535 -203 -10 -5
-45 -22 -78 -36 -72 -32 -279 -135 -355 -178 -111 -61 -127 -71 -240 -140
-188 -114 -585 -394 -625 -440 -5 -7 -32 -30 -60 -52 -27 -22 -55 -44 -61 -50
-6 -5 -46 -41 -90 -80 -89 -79 -287 -276 -384 -381 -285 -308 -569 -700 -779
-1074 -60 -106 -251 -497 -251 -513 0 -7 -4 -17 -9 -22 -41 -42 -269 -723
-306 -913 -1 -9 -8 -35 -13 -57 -6 -22 -20 -87 -32 -145 -27 -132 -26 -126
-34 -181 -4 -25 -8 -57 -11 -70 -20 -127 -34 -233 -41 -309 -2 -30 -6 -73 -9
-95 -24 -219 -24 -829 -1 -1015 2 -14 7 -56 10 -95 4 -38 9 -81 11 -95 2 -14
7 -45 10 -70 3 -25 8 -56 10 -70 2 -14 7 -43 10 -65 3 -23 8 -52 10 -65 3 -14
8 -41 11 -60 3 -19 15 -78 26 -130 10 -52 21 -104 24 -116 3 -17 32 -131 49
-194 2 -8 13 -49 24 -91 52 -194 202 -602 294 -799 51 -110 139 -286 175 -352
18 -32 45 -82 61 -110 146 -266 414 -646 636 -903 172 -199 435 -461 605 -604
63 -53 124 -104 135 -114 34 -31 274 -209 379 -282 477 -326 1050 -598 1593
-754 150 -43 318 -86 372 -96 19 -3 37 -7 40 -9 7 -4 262 -51 326 -61 23 -3
50 -7 60 -9 11 -2 49 -7 85 -11 36 -4 72 -8 80 -10 8 -2 53 -6 100 -10 47 -4
92 -9 102 -10 9 -2 92 -7 185 -11 307 -13 623 -6 858 21 22 3 65 7 95 10 30 3
66 7 80 10 14 3 45 7 70 10 39 5 96 14 245 40 17 3 73 15 125 26 52 11 103 22
112 24 147 30 506 142 718 223 537 206 1036 493 1495 861 66 53 127 103 136
111 8 8 44 40 80 70 105 89 416 406 532 541 518 607 913 1320 1146 2069 28 91
56 179 61 195 10 33 67 250 74 287 3 13 7 32 10 43 27 112 81 412 92 505 3 25
7 56 9 69 3 14 7 51 10 84 4 32 8 66 10 76 2 10 6 58 10 107 3 49 8 103 10
119 21 164 21 659 0 855 -2 19 -7 64 -10 100 -4 36 -8 72 -10 80 -1 8 -6 40
-9 70 -4 30 -11 78 -16 105 -5 28 -12 65 -15 84 -9 54 -63 302 -76 345 -6 21
-12 46 -14 55 -2 9 -19 70 -38 136 -267 903 -784 1748 -1504 2455 -251 246
-404 379 -643 557 -165 123 -496 343 -516 343 -2 0 -34 18 -70 41 -157 96
-562 285 -779 364 -194 71 -483 160 -555 171 -19 3 -38 8 -41 9 -23 14 -454
98 -569 111 -25 2 -58 6 -75 9 -32 4 -69 8 -255 26 -101 10 -724 22 -732 14z
m145 -78 c-4 -8 -192 -330 -418 -716 -225 -385 -417 -713 -426 -729 -9 -15
-26 -45 -39 -67 -12 -22 -37 -65 -55 -95 -18 -30 -44 -74 -56 -96 -24 -42
-383 -656 -400 -684 -5 -8 -108 -186 -230 -395 -122 -209 -277 -474 -344 -590
-67 -115 -234 -401 -370 -635 -234 -402 -296 -507 -509 -873 -49 -83 -126
-215 -171 -292 -45 -77 -92 -156 -102 -175 -44 -77 -594 -1021 -685 -1174 -32
-54 -58 -103 -58 -107 0 -5 -4 -9 -10 -9 -5 0 -10 -4 -10 -9 0 -9 -12 -30
-275 -481 -59 -102 -122 -210 -140 -240 -74 -130 -149 -258 -170 -290 -20 -32
-249 -425 -356 -612 -24 -43 -46 -78 -49 -78 -8 0 -94 154 -161 290 -114 231
-173 377 -277 685 -62 185 -157 579 -187 775 -3 19 -7 46 -10 60 -6 36 -14 94
-20 148 -3 26 -8 54 -10 62 -2 8 -7 51 -10 95 -4 44 -8 96 -10 115 -22 203
-23 828 -1 946 2 11 7 59 11 108 4 49 8 98 10 110 2 11 6 43 9 70 4 27 13 90
22 140 8 50 17 105 20 121 7 48 44 226 56 270 5 22 12 48 13 57 2 10 16 62 30
115 220 820 627 1589 1180 2233 119 138 427 450 545 551 41 35 77 67 80 70 13
14 215 173 300 236 355 262 831 531 1205 680 33 13 69 28 80 33 84 40 413 148
617 204 178 49 499 115 628 130 25 3 55 8 68 10 13 3 51 8 85 11 34 3 73 8 87
10 14 2 68 7 120 10 52 4 96 7 97 8 1 1 70 3 153 5 130 3 151 1 143 -11z m557
-1 c19 -2 70 -7 113 -11 43 -4 88 -8 100 -10 12 -2 43 -7 69 -9 73 -9 205 -30
323 -52 90 -16 280 -61 390 -91 50 -14 97 -26 106 -28 31 -6 376 -124 464
-158 887 -346 1654 -891 2270 -1611 28 -32 55 -63 60 -70 25 -26 178 -229 247
-326 244 -344 457 -732 620 -1125 46 -111 156 -411 163 -445 2 -8 17 -60 33
-115 29 -98 41 -145 41 -155 0 -3 4 -17 10 -33 6 -15 13 -38 15 -50 3 -12 17
-76 31 -142 29 -132 70 -366 81 -460 3 -33 8 -67 9 -76 2 -9 6 -52 10 -95 4
-43 9 -86 10 -95 6 -33 19 -350 19 -479 0 -140 -12 -440 -19 -475 -2 -11 -7
-51 -10 -90 -3 -38 -8 -86 -10 -105 -3 -19 -7 -57 -10 -85 -3 -27 -8 -57 -10
-65 -2 -8 -7 -40 -10 -70 -11 -99 -75 -402 -120 -570 -56 -209 -126 -425 -199
-610 -81 -204 -295 -639 -316 -640 -3 0 -10 9 -15 20 -6 11 -53 93 -106 183
-107 179 -495 842 -527 897 -11 19 -102 175 -202 345 -101 171 -194 328 -206
350 -47 83 -59 90 -813 511 -255 142 -306 174 -316 199 -10 23 -12 159 -11
590 2 418 -1 571 -10 603 -7 23 -33 80 -59 125 -26 45 -59 102 -73 127 -13 25
-49 86 -78 135 -29 50 -150 259 -270 465 -119 206 -285 492 -369 635 -83 143
-182 313 -219 377 -37 64 -73 121 -79 127 -10 7 -12 -268 -12 -1260 0 -839 -3
-1269 -10 -1269 -27 1 -445 241 -457 263 -9 17 -12 384 -14 1542 -1 1736 10
1542 -102 1730 -36 61 -73 124 -82 140 -10 17 -46 77 -80 135 -35 58 -71 119
-80 135 -15 26 -270 456 -612 1030 -52 88 -103 175 -112 193 l-17 33 208 -6
c114 -3 224 -7 243 -9z m-509 -2884 c1 -2688 1 -2752 20 -2776 10 -13 72 -53
137 -89 203 -112 236 -130 267 -149 17 -9 55 -31 85 -47 30 -16 69 -38 87 -48
17 -10 207 -117 422 -238 225 -126 385 -222 378 -226 -13 -7 -558 -152 -1246
-330 -100 -26 -140 -24 -246 10 -141 46 -510 163 -725 231 -334 106 -444 141
-473 152 -32 12 -32 0 -2 208 2 14 6 43 9 65 3 22 12 92 21 155 17 125 18 133
35 260 6 47 13 96 15 110 2 14 6 48 9 75 6 48 23 171 31 225 5 32 36 267 40
300 1 14 5 43 8 65 4 22 11 78 17 125 6 47 13 96 15 110 2 14 7 52 11 85 5 33
8 62 9 65 1 3 5 34 9 70 5 36 10 72 11 80 1 8 6 40 10 70 3 30 8 66 10 80 4
23 8 53 20 148 3 20 10 71 16 112 5 41 12 91 14 110 2 19 6 54 9 78 3 23 3 42
0 42 -3 0 -112 -66 -242 -147 -130 -80 -249 -153 -263 -161 -14 -9 -31 -29
-38 -46 -20 -51 -121 -323 -161 -436 -21 -58 -88 -242 -150 -410 -62 -168
-129 -352 -150 -410 -73 -201 -422 -1156 -466 -1275 -25 -66 -47 -124 -48
-130 -2 -5 -6 -17 -9 -25 -44 -113 -99 -275 -100 -296 -2 -21 4 -29 23 -35 45
-14 562 -180 655 -210 50 -16 134 -43 188 -60 55 -17 95 -35 90 -39 -6 -7
-363 -118 -563 -175 -25 -8 -97 -29 -160 -48 -63 -20 -266 -81 -450 -137 -184
-56 -348 -106 -365 -111 -16 -6 -37 -12 -45 -14 -14 -3 -516 -155 -585 -177
-16 -5 -37 -11 -45 -13 -8 -2 -89 -26 -180 -53 -261 -79 -629 -191 -699 -212
-104 -32 -103 -21 5 160 40 68 262 449 296 510 14 25 41 70 59 101 19 32 41
70 50 85 9 16 64 110 121 209 58 99 139 240 182 313 43 74 127 217 187 319 60
102 109 187 109 189 0 2 24 43 53 92 30 49 57 95 60 103 4 8 15 28 26 44 10
17 60 102 111 190 51 88 139 238 194 333 114 196 106 182 231 397 51 88 157
270 236 405 78 135 230 396 337 580 107 184 203 349 213 365 11 17 22 36 26
44 3 8 49 86 101 175 52 89 103 176 114 195 26 45 257 444 326 561 110 188
133 227 492 845 128 220 241 414 250 430 9 17 55 95 102 175 73 124 232 397
288 495 10 17 104 179 210 360 106 182 201 346 212 365 86 151 131 221 139
213 5 -5 9 -1206 10 -2761z m2729 -4328 c231 -129 868 -486 1175 -659 149 -83
293 -164 320 -179 115 -64 261 -148 279 -161 46 -35 70 -41 -709 186 -170 50
-323 95 -340 99 -16 4 -156 45 -310 90 -154 44 -287 83 -295 85 -46 13 -1025
298 -1079 315 -35 11 -70 20 -77 20 -7 0 -15 4 -18 9 -8 12 48 37 142 65 106
32 641 196 672 206 57 19 84 11 240 -76z m-2560 -783 c58 -18 209 -66 335
-106 127 -40 311 -99 410 -130 99 -31 241 -76 315 -100 74 -24 196 -63 270
-86 l135 -43 1650 -1 c1123 0 1649 -3 1648 -10 -6 -35 -261 -422 -388 -590
-300 -395 -718 -812 -1100 -1095 -33 -25 -62 -47 -65 -50 -3 -4 -27 -22 -55
-41 -27 -18 -52 -36 -55 -39 -49 -49 -479 -308 -678 -409 -300 -151 -677 -297
-1050 -405 -50 -15 -335 -80 -397 -91 -29 -5 -48 -8 -105 -20 -26 -5 -59 -10
-120 -19 -259 -36 -243 -34 -335 -41 -44 -4 -91 -8 -105 -11 -92 -15 -535 -21
-745 -10 -126 7 -162 9 -290 21 -61 6 -379 51 -425 60 -14 3 -60 12 -103 21
-42 8 -89 18 -104 20 -15 3 -30 7 -33 9 -4 2 -22 7 -41 10 -19 3 -86 20 -149
36 -659 175 -1289 472 -1839 867 -361 259 -683 550 -961 868 -112 128 -115
132 -201 239 -138 175 -379 529 -445 657 l-15 30 1503 -3 c827 -1 1526 1 1553
5 28 3 61 8 75 11 14 2 45 7 70 10 25 4 65 11 90 17 25 5 54 12 65 14 11 2 74
20 140 40 66 19 163 48 215 64 52 16 142 42 200 60 58 17 114 33 125 36 11 2
205 58 430 122 226 65 424 118 440 117 17 -1 77 -16 135 -34z"/>
<path d="M6486 10458 c-137 -376 -252 -689 -254 -697 -7 -18 34 4 177 96 64
41 126 82 138 89 38 24 57 78 69 194 2 27 23 180 29 220 4 28 11 80 21 155 3
28 7 57 9 65 2 14 9 61 20 145 20 163 47 356 51 383 4 17 2 32 -2 32 -5 0
-121 -307 -258 -682z"/>
<path d="M12531 11960 c-84 -38 -155 -71 -156 -72 -2 -2 30 -38 70 -82 l73
-78 49 83 c65 111 126 219 121 218 -1 0 -72 -32 -157 -69z"/>
<path d="M2328 11892 c-172 -90 -144 -324 54 -454 71 -47 135 -67 200 -63 166
9 251 168 174 326 -57 118 -187 208 -312 215 -54 3 -71 -1 -116 -24z"/>
<path d="M1142 9738 c7 -17 253 -197 260 -190 7 7 68 178 68 192 0 3 -74 5
-165 5 -91 0 -164 -3 -163 -7z"/>
<path d="M907 8960 c-40 -21 -74 -81 -82 -144 -8 -71 -2 -83 50 -91 25 -3 48
-7 52 -7 5 -1 40 -9 79 -18 l71 -17 12 41 c31 107 25 160 -24 211 -19 19 -38
36 -42 36 -45 8 -89 3 -116 -11z"/>
<path d="M783 7559 c-18 -5 -45 -26 -60 -45 -23 -31 -27 -45 -27 -105 0 -40 6
-75 13 -82 8 -8 57 -12 151 -12 l140 0 0 64 c0 132 -34 183 -128 187 -31 2
-71 -1 -89 -7z"/>
<path d="M1107 5748 c-75 -50 -136 -93 -134 -94 5 -5 317 -18 339 -15 4 1 3
13 -2 29 -5 15 -18 60 -30 100 -11 39 -24 72 -28 71 -4 0 -69 -41 -145 -91z"/>
<path d="M9657 1220 c-76 -24 -103 -43 -125 -88 -22 -44 -19 -90 8 -148 38
-77 122 -93 231 -45 l47 21 -44 132 c-24 72 -47 135 -51 139 -5 4 -34 -1 -66
-11z"/>
<path d="M7956 868 c-87 -18 -123 -65 -110 -144 9 -63 26 -88 67 -101 48 -16
165 -19 179 -5 10 10 12 161 3 207 -2 11 -4 28 -4 38 -1 15 -9 18 -48 16 -27
-2 -65 -6 -87 -11z"/>
</g>
</svg>
